<?xml version="1.0" encoding="UTF-8" standalone="no"?>
<!-- Created with Inkscape (http://www.inkscape.org/) -->

<svg
   xmlns:dc="http://purl.org/dc/elements/1.1/"
   xmlns:cc="http://creativecommons.org/ns#"
   xmlns:rdf="http://www.w3.org/1999/02/22-rdf-syntax-ns#"
   xmlns:svg="http://www.w3.org/2000/svg"
   xmlns="http://www.w3.org/2000/svg"
   xmlns:xlink="http://www.w3.org/1999/xlink"
   xmlns:sodipodi="http://sodipodi.sourceforge.net/DTD/sodipodi-0.dtd"
   xmlns:inkscape="http://www.inkscape.org/namespaces/inkscape"
   width="96"
   height="96"
   id="svg6517"
   version="1.1"
   inkscape:version="0.48+devel r12505"
   sodipodi:docname="couchDB.svg">
  <defs
     id="defs6519">
    <filter
       style="color-interpolation-filters:sRGB;"
       inkscape:label="Inner Shadow"
       id="filter1121">
      <feFlood
         flood-opacity="0.59999999999999998"
         flood-color="rgb(0,0,0)"
         result="flood"
         id="feFlood1123" />
      <feComposite
         in="flood"
         in2="SourceGraphic"
         operator="out"
         result="composite1"
         id="feComposite1125" />
      <feGaussianBlur
         in="composite1"
         stdDeviation="1"
         result="blur"
         id="feGaussianBlur1127" />
      <feOffset
         dx="0"
         dy="2"
         result="offset"
         id="feOffset1129" />
      <feComposite
         in="offset"
         in2="SourceGraphic"
         operator="atop"
         result="composite2"
         id="feComposite1131" />
    </filter>
    <filter
       style="color-interpolation-filters:sRGB;"
       inkscape:label="Drop Shadow"
       id="filter950">
      <feFlood
         flood-opacity="0.25"
         flood-color="rgb(0,0,0)"
         result="flood"
         id="feFlood952" />
      <feComposite
         in="flood"
         in2="SourceGraphic"
         operator="in"
         result="composite1"
         id="feComposite954" />
      <feGaussianBlur
         in="composite1"
         stdDeviation="4"
         result="blur"
         id="feGaussianBlur956" />
      <feOffset
         dx="0"
         dy="1"
         result="offset"
         id="feOffset958" />
      <feComposite
         in="SourceGraphic"
         in2="offset"
         operator="over"
         result="composite2"
         id="feComposite960" />
    </filter>
    <linearGradient
       id="Background">
      <stop
         id="stop4178"
         offset="0"
         style="stop-color:#22779e;stop-opacity:1" />
      <stop
         id="stop4180"
         offset="1"
         style="stop-color:#2991c0;stop-opacity:1" />
    </linearGradient>
    <clipPath
       clipPathUnits="userSpaceOnUse"
       id="clipPath873">
      <g
         transform="matrix(0,-0.66666667,0.66604479,0,-258.25992,677.00001)"
         id="g875"
         inkscape:label="Layer 1"
         style="fill:#ff00ff;fill-opacity:1;stroke:none;display:inline">
        <path
           style="fill:#ff00ff;fill-opacity:1;stroke:none;display:inline"
           d="m 46.702703,898.22775 50.594594,0 C 138.16216,898.22775 144,904.06497 144,944.92583 l 0,50.73846 c 0,40.86071 -5.83784,46.69791 -46.702703,46.69791 l -50.594594,0 C 5.8378378,1042.3622 0,1036.525 0,995.66429 L 0,944.92583 C 0,904.06497 5.8378378,898.22775 46.702703,898.22775 Z"
           id="path877"
           inkscape:connector-curvature="0"
           sodipodi:nodetypes="sssssssss" />
      </g>
    </clipPath>
    <filter
       inkscape:collect="always"
       id="filter891"
       inkscape:label="Badge Shadow">
      <feGaussianBlur
         inkscape:collect="always"
         stdDeviation="0.71999962"
         id="feGaussianBlur893" />
    </filter>
    <style
       id="style867"
       type="text/css"><![CDATA[
    .fil0 {fill:#1F1A17}
   ]]></style>
    <linearGradient
       inkscape:collect="always"
       xlink:href="#linearGradient4439"
       id="linearGradient908"
       x1="-220"
       y1="731.29077"
       x2="-220"
       y2="635.29077"
       gradientUnits="userSpaceOnUse" />
    <clipPath
       id="clipPath16">
      <path
         id="path18"
         d="m -9,-9 614,0 0,231 -614,0 0,-231 z" />
    </clipPath>
    <clipPath
       id="clipPath116">
      <path
         id="path118"
         d="m 91.7368,146.3253 -9.7039,-1.577 -8.8548,-3.8814 -7.5206,-4.7308 -7.1566,-8.7335 -4.0431,-4.282 -3.9093,-1.4409 -1.034,2.5271 1.8079,2.6096 0.4062,3.6802 1.211,-0.0488 1.3232,-1.2069 -0.3569,3.7488 -1.4667,0.9839 0.0445,1.4286 -3.4744,-1.9655 -3.1462,-3.712 -0.6559,-3.3176 1.3453,-2.6567 1.2549,-4.5133 2.5521,-1.2084 2.6847,0.1318 2.5455,1.4791 -1.698,-8.6122 1.698,-9.5825 -1.8692,-4.4246 -6.1223,-6.5965 1.0885,-3.941 2.9002,-4.5669 5.4688,-3.8486 2.9007,-0.3969 3.225,-0.1094 -2.012,-8.2601 7.3993,-3.0326 9.2188,-1.2129 3.1535,2.0619 0.2427,5.5797 3.5178,5.8224 0.2426,4.6094 8.4909,-0.6066 7.8843,0.7279 -7.8843,-4.7307 1.3343,-5.701 4.9731,-7.763 4.8521,-2.0622 3.8814,1.5769 1.577,3.1538 8.1269,6.1861 1.5769,-1.3343 12.7363,-0.485 2.5473,2.0619 0.2426,3.6391 -0.849,1.5767 -0.6066,9.8251 -4.2454,8.4909 0.7276,3.7605 2.5475,-1.3343 7.1566,-6.6716 3.5175,-0.2424 3.8815,1.5769 3.8818,2.9109 1.9406,6.3077 11.4021,-0.7277 6.914,2.6686 5.5797,5.2157 4.0028,7.5206 0.9706,8.8546 -0.8493,10.3105 -2.1832,9.2185 -2.1836,2.9112 -3.0322,0.9706 -5.3373,-5.8224 -4.8518,-1.6982 -4.2455,7.0353 -4.2454,3.8815 -2.3049,1.4556 -9.2185,7.6419 -7.3993,4.0028 -7.3993,0.6066 -8.6119,-1.4556 -7.5206,-2.7899 -5.2158,-4.2454 -4.1241,-4.9734 -4.2454,-1.2129" />
    </clipPath>
    <clipPath
       id="clipPath128">
      <path
         id="path130"
         d="m 91.7368,146.3253 -9.7039,-1.577 -8.8548,-3.8814 -7.5206,-4.7308 -7.1566,-8.7335 -4.0431,-4.282 -3.9093,-1.4409 -1.034,2.5271 1.8079,2.6096 0.4062,3.6802 1.211,-0.0488 1.3232,-1.2069 -0.3569,3.7488 -1.4667,0.9839 0.0445,1.4286 -3.4744,-1.9655 -3.1462,-3.712 -0.6559,-3.3176 1.3453,-2.6567 1.2549,-4.5133 2.5521,-1.2084 2.6847,0.1318 2.5455,1.4791 -1.698,-8.6122 1.698,-9.5825 -1.8692,-4.4246 -6.1223,-6.5965 1.0885,-3.941 2.9002,-4.5669 5.4688,-3.8486 2.9007,-0.3969 3.225,-0.1094 -2.012,-8.2601 7.3993,-3.0326 9.2188,-1.2129 3.1535,2.0619 0.2427,5.5797 3.5178,5.8224 0.2426,4.6094 8.4909,-0.6066 7.8843,0.7279 -7.8843,-4.7307 1.3343,-5.701 4.9731,-7.763 4.8521,-2.0622 3.8814,1.5769 1.577,3.1538 8.1269,6.1861 1.5769,-1.3343 12.7363,-0.485 2.5473,2.0619 0.2426,3.6391 -0.849,1.5767 -0.6066,9.8251 -4.2454,8.4909 0.7276,3.7605 2.5475,-1.3343 7.1566,-6.6716 3.5175,-0.2424 3.8815,1.5769 3.8818,2.9109 1.9406,6.3077 11.4021,-0.7277 6.914,2.6686 5.5797,5.2157 4.0028,7.5206 0.9706,8.8546 -0.8493,10.3105 -2.1832,9.2185 -2.1836,2.9112 -3.0322,0.9706 -5.3373,-5.8224 -4.8518,-1.6982 -4.2455,7.0353 -4.2454,3.8815 -2.3049,1.4556 -9.2185,7.6419 -7.3993,4.0028 -7.3993,0.6066 -8.6119,-1.4556 -7.5206,-2.7899 -5.2158,-4.2454 -4.1241,-4.9734 -4.2454,-1.2129" />
    </clipPath>
    <linearGradient
       id="linearGradient3850"
       inkscape:collect="always">
      <stop
         id="stop3852"
         offset="0"
         style="stop-color:#000000;stop-opacity:1;" />
      <stop
         id="stop3854"
         offset="1"
         style="stop-color:#000000;stop-opacity:0;" />
    </linearGradient>
    <clipPath
       clipPathUnits="userSpaceOnUse"
       id="clipPath3095">
      <path
         d="m 976.648,389.551 -842.402,0 0,839.999 842.402,0 0,-839.999"
         id="path3097"
         inkscape:connector-curvature="0" />
    </clipPath>
    <linearGradient
       id="linearGradient4439"
       inkscape:collect="always">
      <stop
         id="stop4441"
         offset="0"
         style="stop-color:#dcd5d1;stop-opacity:1" />
      <stop
         id="stop4443"
         offset="1"
         style="stop-color:#e8e4e1;stop-opacity:1" />
    </linearGradient>
    <clipPath
       clipPathUnits="userSpaceOnUse"
       id="clipPath3195">
      <path
         d="m 611.836,756.738 -106.34,105.207 c -8.473,8.289 -13.617,20.102 -13.598,33.379 L 598.301,790.207 c -0.031,-13.418 5.094,-25.031 13.535,-33.469"
         id="path3197"
         inkscape:connector-curvature="0" />
    </clipPath>
    <clipPath
       clipPathUnits="userSpaceOnUse"
       id="clipPath3235">
      <path
         d="m 1095.64,1501.81 c 35.46,-35.07 70.89,-70.11 106.35,-105.17 4.4,-4.38 7.11,-10.53 7.11,-17.55 l -106.37,105.21 c 0,7 -2.71,13.11 -7.09,17.51"
         id="path3237"
         inkscape:connector-curvature="0" />
    </clipPath>
    <clipPath
       id="clipPath4591"
       clipPathUnits="userSpaceOnUse">
      <path
         inkscape:connector-curvature="0"
         d="m 1106.6009,730.43734 -0.036,21.648 c -0.01,3.50825 -2.8675,6.61375 -6.4037,6.92525 l -83.6503,7.33162 c -3.5205,0.30763 -6.3812,-2.29987 -6.3671,-5.8145 l 0.036,-21.6475 20.1171,-1.76662 -0.011,4.63775 c 0,1.83937 1.4844,3.19925 3.3262,3.0395 l 49.5274,-4.33975 c 1.8425,-0.166 3.3425,-1.78125 3.3538,-3.626 l 0.01,-4.63025 20.1,-1.7575"
         style="fill:#ff00ff;fill-opacity:1;fill-rule:nonzero;stroke:none"
         id="path4593" />
    </clipPath>
    <radialGradient
       gradientUnits="userSpaceOnUse"
       gradientTransform="matrix(-1.4333926,-2.2742838,1.1731823,-0.73941125,-174.08025,98.374394)"
       r="20.40658"
       fy="93.399292"
       fx="-26.508606"
       cy="93.399292"
       cx="-26.508606"
       id="radialGradient3856"
       xlink:href="#linearGradient3850"
       inkscape:collect="always" />
    <linearGradient
       gradientTransform="translate(-318.48033,212.32022)"
       gradientUnits="userSpaceOnUse"
       y2="993.19702"
       x2="-51.879555"
       y1="593.11615"
       x1="348.20132"
       id="linearGradient3895"
       xlink:href="#linearGradient3850"
       inkscape:collect="always" />
    <clipPath
       id="clipPath3906"
       clipPathUnits="userSpaceOnUse">
      <rect
         transform="scale(1,-1)"
         style="opacity:0.8;color:#000000;fill:#ff00ff;stroke:none;stroke-width:4;marker:none;visibility:visible;display:inline;overflow:visible;enable-background:accumulate"
         id="rect3908"
         width="1019.1371"
         height="1019.1371"
         x="357.9816"
         y="-1725.8152" />
    </clipPath>
  </defs>
  <sodipodi:namedview
     id="base"
     pagecolor="#ffffff"
     bordercolor="#666666"
     borderopacity="1.0"
     inkscape:pageopacity="0.0"
     inkscape:pageshadow="2"
     inkscape:zoom="2.6077031"
     inkscape:cx="-5.2196547"
     inkscape:cy="40.965668"
     inkscape:document-units="px"
     inkscape:current-layer="layer1"
     showgrid="false"
     fit-margin-top="0"
     fit-margin-left="0"
     fit-margin-right="0"
     fit-margin-bottom="0"
     inkscape:window-width="1920"
     inkscape:window-height="1029"
     inkscape:window-x="0"
     inkscape:window-y="24"
     inkscape:window-maximized="1"
     showborder="true"
     showguides="false"
     inkscape:guide-bbox="true"
     inkscape:showpageshadow="false"
     inkscape:snap-global="true"
     inkscape:snap-bbox="true"
     inkscape:bbox-paths="true"
     inkscape:bbox-nodes="true"
     inkscape:snap-bbox-edge-midpoints="true"
     inkscape:snap-bbox-midpoints="true"
     inkscape:object-paths="true"
     inkscape:snap-intersection-paths="true"
     inkscape:object-nodes="true"
     inkscape:snap-smooth-nodes="true"
     inkscape:snap-midpoints="true"
     inkscape:snap-object-midpoints="true"
     inkscape:snap-center="true">
    <inkscape:grid
       type="xygrid"
       id="grid821" />
    <sodipodi:guide
       orientation="1,0"
       position="16,48"
       id="guide823" />
    <sodipodi:guide
       orientation="0,1"
       position="64,80"
       id="guide825" />
    <sodipodi:guide
       orientation="1,0"
       position="80,40"
       id="guide827" />
    <sodipodi:guide
       orientation="0,1"
       position="64,16"
       id="guide829" />
  </sodipodi:namedview>
  <metadata
     id="metadata6522">
    <rdf:RDF>
      <cc:Work
         rdf:about="">
        <dc:format>image/svg+xml</dc:format>
        <dc:type
           rdf:resource="http://purl.org/dc/dcmitype/StillImage" />
        <dc:title></dc:title>
      </cc:Work>
    </rdf:RDF>
  </metadata>
  <g
     inkscape:label="BACKGROUND"
     inkscape:groupmode="layer"
     id="layer1"
     transform="translate(268,-635.29076)"
     style="display:inline">
    <path
       style="fill:url(#linearGradient908);fill-opacity:1;stroke:none;display:inline;filter:url(#filter1121)"
       d="m -268,700.15563 0,-33.72973 c 0,-27.24324 3.88785,-31.13513 31.10302,-31.13513 l 33.79408,0 c 27.21507,0 31.1029,3.89189 31.1029,31.13513 l 0,33.72973 c 0,27.24325 -3.88783,31.13514 -31.1029,31.13514 l -33.79408,0 c -27.21517,0 -31.10302,-3.89189 -31.10302,-31.13514 z"
       id="path6455"
       inkscape:connector-curvature="0"
       sodipodi:nodetypes="sssssssss" />
    <g
       id="g4193"
       transform="matrix(0.29552055,0,0,0.29552055,-252.76983,663.04952)"
       style="">
      <polygon
         id="polygon4147"
         points="215.396,126.065 215.396,48.685 201.51,48.685 201.51,10.92 20.542,10.92 20.542,48.685 6.383,48.685 6.383,126.065 "
         style="fill:#ff0000" />
      <path
         id="path4149"
         d="m 2.605,127.709 0,-82.803 14.16,0 0,-37.764 188.522,0 0,37.764 13.885,0 0,82.803 -216.567,0 0,0 z m 5.905,-2.973 203.994,0.179 -0.884,-72.453 -13.89,0 0,-37.766 -173.413,0 0,37.766 -14.16,0 -1.381,69.877 -0.266,2.397 z"
         inkscape:connector-curvature="0"
         style="fill:#eb1019" />
      <polygon
         id="polygon4151"
         points="29.972,23.848 36.422,32.574 55.382,26.136 55.305,0.438 29.972,6.829 "
         style="fill:#ffffff" />
      <polygon
         id="polygon4153"
         points="76.686,103.309 187.977,92.94 188.003,126.69 33.813,126.69 33.899,93.641 "
         style="fill:#bd101d;stroke:#bd101d" />
      <polygon
         id="polygon4155"
         points="73.602,86.029 187.13,75.945 187.13,52.758 161.239,69.688 149.609,64.863 125.424,48.352 96.529,57.145 33.871,52.401 33.871,74.63 "
         style="fill:#bd101d;stroke:#bd101d" />
      <polygon
         id="polygon4157"
         points="24.002,53.469 33.871,53.467 52.137,80.971 58.873,82.808 68.02,120.713 72.766,122.681 76.123,136.549 102.592,136.549 89.863,83.941 125.821,60.593 145.377,77.117 150.128,75.256 151.931,80.169 187.13,77.01 184.075,69.212 164.271,64.369 128.412,35.152 89.34,49.973 77.334,34.173 95.421,15.785 112.66,15.785 119.461,21.515 119.461,15.785 133.01,15.785 129.737,8.181 90.051,1.897 53.414,25.361 16.749,37.652 9.587,45.228 9.587,65.542 19.699,69.846 19.699,58.113 24.002,61.485 "
         style="fill:#ffffff" />
    </g>
  </g>
  <g
     inkscape:groupmode="layer"
     id="layer3"
     inkscape:label="PLACE YOUR PICTOGRAM HERE"
     style="display:inline" />
  <g
     inkscape:groupmode="layer"
     id="layer2"
     inkscape:label="BADGE"
     style="display:none"
     sodipodi:insensitive="true">
    <g
       style="display:inline"
       transform="translate(-340.00001,-581)"
       id="g4394"
       clip-path="none">
      <g
         id="g855">
        <g
           inkscape:groupmode="maskhelper"
           id="g870"
           clip-path="url(#clipPath873)"
           style="opacity:0.6;filter:url(#filter891)">
          <path
             transform="matrix(1.4999992,0,0,1.4999992,-29.999795,-237.54282)"
             d="m 264,552.36218 c 0,6.62742 -5.37258,12 -12,12 -6.62742,0 -12,-5.37258 -12,-12 0,-6.62741 5.37258,-12 12,-12 6.62742,0 12,5.37259 12,12 z"
             sodipodi:ry="12"
             sodipodi:rx="12"
             sodipodi:cy="552.36218"
             sodipodi:cx="252"
             id="path844"
             style="color:#000000;fill:#000000;fill-opacity:1;fill-rule:nonzero;stroke:none;stroke-width:4;marker:none;visibility:visible;display:inline;overflow:visible;enable-background:accumulate"
             sodipodi:type="arc" />
        </g>
        <g
           id="g862">
          <path
             sodipodi:type="arc"
             style="color:#000000;fill:#f5f5f5;fill-opacity:1;fill-rule:nonzero;stroke:none;stroke-width:4;marker:none;visibility:visible;display:inline;overflow:visible;enable-background:accumulate"
             id="path4398"
             sodipodi:cx="252"
             sodipodi:cy="552.36218"
             sodipodi:rx="12"
             sodipodi:ry="12"
             d="m 264,552.36218 c 0,6.62742 -5.37258,12 -12,12 -6.62742,0 -12,-5.37258 -12,-12 0,-6.62741 5.37258,-12 12,-12 6.62742,0 12,5.37259 12,12 z"
             transform="matrix(1.4999992,0,0,1.4999992,-29.999795,-238.54282)" />
          <path
             transform="matrix(1.25,0,0,1.25,33,-100.45273)"
             d="m 264,552.36218 c 0,6.62742 -5.37258,12 -12,12 -6.62742,0 -12,-5.37258 -12,-12 0,-6.62741 5.37258,-12 12,-12 6.62742,0 12,5.37259 12,12 z"
             sodipodi:ry="12"
             sodipodi:rx="12"
             sodipodi:cy="552.36218"
             sodipodi:cx="252"
             id="path4400"
             style="color:#000000;fill:#dd4814;fill-opacity:1;fill-rule:nonzero;stroke:none;stroke-width:4;marker:none;visibility:visible;display:inline;overflow:visible;enable-background:accumulate"
             sodipodi:type="arc" />
          <path
             sodipodi:type="star"
             style="color:#000000;fill:#f5f5f5;fill-opacity:1;fill-rule:nonzero;stroke:none;stroke-width:3;marker:none;visibility:visible;display:inline;overflow:visible;enable-background:accumulate"
             id="path4459"
             sodipodi:sides="5"
             sodipodi:cx="666.19574"
             sodipodi:cy="589.50385"
             sodipodi:r1="7.2431178"
             sodipodi:r2="4.3458705"
             sodipodi:arg1="1.0471976"
             sodipodi:arg2="1.6755161"
             inkscape:flatsided="false"
             inkscape:rounded="0.1"
             inkscape:randomized="0"
             d="m 669.8173,595.77657 c -0.39132,0.22593 -3.62645,-1.90343 -4.07583,-1.95066 -0.44938,-0.0472 -4.05653,1.36297 -4.39232,1.06062 -0.3358,-0.30235 0.68963,-4.03715 0.59569,-4.47913 -0.0939,-0.44198 -2.5498,-3.43681 -2.36602,-3.8496 0.18379,-0.41279 4.05267,-0.59166 4.44398,-0.81759 0.39132,-0.22593 2.48067,-3.48704 2.93005,-3.4398 0.44938,0.0472 1.81505,3.67147 2.15084,3.97382 0.3358,0.30236 4.08294,1.2817 4.17689,1.72369 0.0939,0.44198 -2.9309,2.86076 -3.11469,3.27355 -0.18379,0.41279 0.0427,4.27917 -0.34859,4.5051 z"
             transform="matrix(1.511423,-0.16366377,0.16366377,1.511423,-755.37346,-191.93651)" />
        </g>
      </g>
    </g>
  </g>
</svg>
